<svg xmlns="http://www.w3.org/2000/svg" xmlns:xlink="http://www.w3.org/1999/xlink" viewBox="-200 0 400 354" width="399.282" height="354" fill="none" stroke-width="10" stroke-linejoin="round" stroke-linecap="round">
  <!-- stroke saturation 50% to 100%, half of lightness -->
  <!-- blood gets darker saturation 1x lightness -2x -->
  <!-- base hsl(0, 60%, 50%) (stroke hsl(0, 80%, 25%)) -->
  <g fill="hsl(0, 60%, 50%)" stroke="black">
    <path d="M -70 175 L -20 147 L -20 300 L -150 350 C -160 320 -200 230 -190 170 C -180 110 -140 65 -80 40 L -20 55 L -20 90 L -100 140"/>
    <path d="M 70 175 L 20 147 L 20 300 L 150 350 C 160 320 200 230 190 170 C 180 110 140 65 80 40 L 20 55 L 20 90 L 100 140"/>
  </g>

  <g stroke="black">
    <path d="M -20 5 L -20 90 L -100 140"/>
    <path d="M 20 5 L 20 90 L 100 140"/>
    <path d="M -70 175 L 0 135 L 70 175"/>
  </g>
</svg>
